<svg width="26" height="26" viewBox="0 0 26 26" fill="none" xmlns="http://www.w3.org/2000/svg">
<g clip-path="url(#clip0)">
<path d="M25.6357 19.6964C25.5323 19.6212 23.4313 18.1144 20.6616 17.6528C20.9979 17.3791 21.3269 17.0848 21.6434 16.7682C25.0785 13.3331 25.906 8.45317 25.9395 8.24715C26.023 7.73446 25.5788 7.28945 25.0653 7.37294C24.8598 7.4064 20.0021 8.23034 16.5684 11.6454C16.5924 11.2891 16.6056 10.9279 16.6056 10.5623C16.6056 5.1238 13.7657 0.547829 13.6448 0.355721C13.3464 -0.118533 12.6537 -0.118533 12.3553 0.355721C12.2344 0.547829 9.3945 5.1238 9.3945 10.5623C9.3945 10.9278 9.40771 11.2891 9.43168 11.6454C5.99795 8.23034 1.14029 7.4064 0.934725 7.37294C0.421928 7.28945 -0.0230239 7.7339 0.0605125 8.24715C0.0940795 8.45323 0.921522 13.3331 4.35662 16.7682C4.6732 17.0848 5.00216 17.3791 5.33849 17.6528C2.56879 18.1144 0.467734 19.6212 0.364341 19.6964C-0.0540009 20.0007 -0.0531884 20.6248 0.364341 20.9285C0.486574 21.0174 3.39801 23.1055 6.90624 23.1055C9.0921 23.1055 11.0461 22.2948 12.2383 21.6622V25.2383C12.2383 25.659 12.5794 26.0001 13.0001 26.0001C13.4208 26.0001 13.7618 25.659 13.7618 25.2383V21.6622C14.954 22.2948 16.9081 23.1055 19.0939 23.1055C22.6021 23.1055 25.5136 21.0174 25.6358 20.9285C26.0541 20.6242 26.0532 20 25.6357 19.6964ZM17.6215 12.7462C19.7565 10.6113 22.6047 9.58023 24.1662 9.14615C23.732 10.708 22.701 13.5561 20.5662 15.6909C18.6315 17.6257 16.1112 18.6537 14.4934 19.1525C15.0205 18.0628 15.6774 16.4744 16.1174 14.6007C16.5758 13.9107 17.081 13.2868 17.6215 12.7462ZM13.0008 2.35958C13.8072 3.99471 15.082 7.12375 15.082 10.5623C15.082 13.9915 13.8056 17.1027 13 18.7247C12.1942 17.1024 10.9179 13.9912 10.9179 10.5623C10.9179 7.13254 12.1944 3.99766 13.0008 2.35958ZM1.83372 9.1462C3.39557 9.58038 6.24368 10.6114 8.37851 12.7462C8.91898 13.2868 9.42416 13.9107 9.88257 14.6007C10.3226 16.4744 10.9795 18.0628 11.5066 19.1525C9.88851 18.6536 7.36845 17.6256 5.43376 15.691C3.29878 13.5559 2.2678 10.7077 1.83372 9.1462ZM2.28776 20.3125C3.84063 19.4906 5.638 18.9403 7.41263 19.0602C8.71245 19.7953 9.98231 20.2798 10.9711 20.5879C9.92782 21.0758 8.46905 21.582 6.90613 21.582C5.04284 21.582 3.32722 20.8625 2.28776 20.3125ZM19.0938 21.582C17.5308 21.582 16.072 21.0758 15.0288 20.5879C16.0176 20.2798 17.2875 19.7953 18.5873 19.0601C20.3619 18.9403 22.1594 19.4906 23.7122 20.3124C22.6725 20.8627 20.9571 21.582 19.0938 21.582Z" fill="white"/>
</g>
<defs>
<clipPath id="clip0">
<rect width="26" height="26" fill="white"/>
</clipPath>
</defs>
</svg>
