<svg width="16" height="16" viewBox="0 0 16 16" fill="none" xmlns="http://www.w3.org/2000/svg">
<path fill-rule="evenodd" clip-rule="evenodd" d="M10.7604 0.0619736C11.6101 -0.180785 12.4957 0.311202 12.7384 1.16086C12.7793 1.3038 12.8 1.45175 12.8 1.60041L12.8 2.9401H14.4C15.2837 2.9401 16 3.65645 16 4.5401V14.1401C16 15.0238 15.2837 15.7401 14.4 15.7401H1.6C0.716344 15.7401 0 15.0238 0 14.1401H0.0214082C0.00717669 14.054 0 13.9667 0 13.8792V4.34327C0 3.6289 0.473564 3.00108 1.16045 2.80483L10.7604 0.0619736ZM6.51108 14.1401H14.4V4.5401H12.8L12.8 6.13976H14.4V7.73976H12.8L12.8 11.1364C12.8 11.8508 12.3264 12.4786 11.6396 12.6748L6.51108 14.1401ZM1.59999 4.34389V13.8799L11.2 11.137V1.60104L1.59999 4.34389ZM9.6 6.14028C9.6 6.58211 9.24183 6.94028 8.8 6.94028C8.35817 6.94028 8 6.58211 8 6.14028C8 5.69845 8.35817 5.34028 8.8 5.34028C9.24183 5.34028 9.6 5.69845 9.6 6.14028Z" fill="white"/>
</svg>
