<svg width="26" height="26" viewBox="0 0 26 26" fill="none" xmlns="http://www.w3.org/2000/svg">
<g clip-path="url(#clip0)">
<path d="M10.1751 18.7905L5.9223 16.0239C5.69871 15.8786 5.40068 15.9308 5.23996 16.1438L2.18496 20.1944C2.06638 20.3516 2.04937 20.5632 2.14128 20.7372L4.77592 25.7292C4.86484 25.8977 5.03902 26.0001 5.22487 26.0001C5.25402 26.0001 5.28348 25.9975 5.31288 25.9923L7.26207 25.6498H7.26227C7.26232 25.6498 7.26237 25.6498 7.26242 25.6497L9.21151 25.3072C9.42865 25.2691 9.59638 25.0951 9.62664 24.8767L10.4012 19.2859C10.4282 19.0909 10.3401 18.8979 10.1751 18.7905ZM5.76554 17.1336L8.99041 19.2315L6.44677 21.0105L3.449 20.2051L5.76554 17.1336ZM5.50143 24.928L3.58281 21.2927L6.09958 21.969L6.58627 24.7374L5.50143 24.928ZM8.67145 24.3709L7.58656 24.5616L7.09987 21.7932L9.23548 20.2995L8.67145 24.3709Z" fill="white"/>
<path d="M25.8302 18.9666L25.6678 14.3174C25.6585 14.0507 25.4445 13.8368 25.1779 13.8275L20.5294 13.6666C20.364 13.6578 20.1863 13.7364 20.092 13.8754L13.8284 22.3842C13.7171 22.5355 13.6983 22.7361 13.7798 22.9054L14.6148 24.6414C14.6647 24.7453 14.7485 24.829 14.8524 24.879L16.5886 25.7138C16.6585 25.7474 16.7337 25.764 16.8086 25.764C16.9151 25.764 17.0208 25.7306 17.1096 25.6652L25.6239 19.4022C25.7597 19.3025 25.8392 19.135 25.8302 18.9666ZM14.8274 22.7404L20.3498 15.2384L21.2007 17.5773L15.2197 23.556L14.8274 22.7404ZM16.7537 24.6662L15.938 24.274L21.9189 18.2954L24.258 19.1461L16.7537 24.6662ZM22.1848 17.3114L21.2374 14.7074L24.6693 14.8262L24.7892 18.2586L22.1848 17.3114Z" fill="white"/>
<path d="M16.9072 6.94302L21.0376 8.97264C21.1083 9.00738 21.1849 9.02469 21.2616 9.02469C21.3383 9.02469 21.415 9.00733 21.4856 8.97264L25.6146 6.94302C25.8408 6.83181 25.9512 6.5715 25.8739 6.33156L23.9476 0.352117C23.88 0.142289 23.6848 0 23.4643 0H19.0574C18.8369 0 18.6416 0.142289 18.574 0.352117L16.6477 6.33156C16.5705 6.5715 16.681 6.83186 16.9072 6.94302ZM21.7694 1.01563H23.0944L24.4864 5.3367L21.7694 3.66966V1.01563ZM24.3395 6.4381L21.2616 7.95102L18.1826 6.4381L21.2616 4.54959L24.3395 6.4381ZM19.4273 1.01563H20.7538V3.66955L18.0352 5.33701L19.4273 1.01563Z" fill="white"/>
<path d="M12.4738 5.37567C12.7542 5.37567 12.9816 5.14827 12.9816 4.86786V4.53534C12.9816 4.25493 12.7542 4.02753 12.4738 4.02753C12.1934 4.02753 11.966 4.25493 11.966 4.53534V4.86786C11.966 5.14832 12.1934 5.37567 12.4738 5.37567Z" fill="white"/>
<path d="M12.4738 2.03193C12.7542 2.03193 12.9816 1.80453 12.9816 1.52411V1.19012C12.9816 0.90971 12.7542 0.682312 12.4738 0.682312C12.1934 0.682312 11.966 0.90971 11.966 1.19012V1.52411C11.966 1.80453 12.1934 2.03193 12.4738 2.03193Z" fill="white"/>
<path d="M13.9798 3.53754H14.3123C14.5927 3.53754 14.8201 3.31014 14.8201 3.02972C14.8201 2.74931 14.5927 2.52191 14.3123 2.52191H13.9798C13.6994 2.52191 13.472 2.74931 13.472 3.02972C13.472 3.31014 13.6993 3.53754 13.9798 3.53754Z" fill="white"/>
<path d="M10.6339 3.53754H10.9665C11.2469 3.53754 11.4743 3.31014 11.4743 3.02972C11.4743 2.74931 11.2469 2.52191 10.9665 2.52191H10.6339C10.3535 2.52191 10.1261 2.74931 10.1261 3.02972C10.1261 3.31014 10.3535 3.53754 10.6339 3.53754Z" fill="white"/>
<path d="M4.43028 14.2398C4.7107 14.2398 4.9381 14.0124 4.9381 13.732C4.9381 13.4516 4.7107 13.2242 4.43028 13.2242H4.09772C3.8173 13.2242 3.5899 13.4516 3.5899 13.732C3.5899 14.0124 3.8173 14.2398 4.09772 14.2398H4.43028Z" fill="white"/>
<path d="M2.59187 12.7341C2.87229 12.7341 3.09969 12.5067 3.09969 12.2263V11.8938C3.09969 11.6134 2.87229 11.386 2.59187 11.386C2.31146 11.386 2.08406 11.6134 2.08406 11.8938V12.2263C2.08406 12.5067 2.31141 12.7341 2.59187 12.7341Z" fill="white"/>
<path d="M1.08595 13.2242H0.753387C0.472973 13.2242 0.245575 13.4516 0.245575 13.732C0.245575 14.0124 0.472973 14.2398 0.753387 14.2398H1.08595C1.36637 14.2398 1.59377 14.0124 1.59377 13.732C1.59377 13.4516 1.36637 13.2242 1.08595 13.2242Z" fill="white"/>
<path d="M2.08406 15.5701C2.08406 15.8505 2.31146 16.0779 2.59187 16.0779C2.87229 16.0779 3.09969 15.8505 3.09969 15.5701V15.2376C3.09969 14.9572 2.87229 14.7298 2.59187 14.7298C2.31146 14.7298 2.08406 14.9572 2.08406 15.2376V15.5701Z" fill="white"/>
<path d="M17.8779 9.0451C17.8779 8.76469 17.6505 8.53729 17.3701 8.53729C17.0897 8.53729 16.8623 8.76469 16.8623 9.0451V9.37909C16.8623 9.65951 17.0897 9.8869 17.3701 9.8869C17.6505 9.8869 17.8779 9.65951 17.8779 9.37909V9.0451Z" fill="white"/>
<path d="M17.3701 11.8826C17.0897 11.8826 16.8623 12.11 16.8623 12.3904V12.7229C16.8623 13.0033 17.0897 13.2307 17.3701 13.2307C17.6505 13.2307 17.8779 13.0033 17.8779 12.7229V12.3904C17.8779 12.11 17.6506 11.8826 17.3701 11.8826Z" fill="white"/>
<path d="M18.876 10.377C18.5956 10.377 18.3682 10.6044 18.3682 10.8848C18.3682 11.1652 18.5956 11.3926 18.876 11.3926H19.2087C19.4891 11.3926 19.7165 11.1652 19.7165 10.8848C19.7165 10.6044 19.4891 10.377 19.2087 10.377H18.876Z" fill="white"/>
<path d="M15.5303 11.3926H15.8642C16.1447 11.3926 16.3721 11.1652 16.3721 10.8848C16.3721 10.6044 16.1447 10.377 15.8642 10.377H15.5303C15.2498 10.377 15.0224 10.6044 15.0224 10.8848C15.0224 11.1652 15.2498 11.3926 15.5303 11.3926Z" fill="white"/>
<path d="M11.5654 16.768H11.2328C10.9524 16.768 10.725 16.9954 10.725 17.2758C10.725 17.5562 10.9524 17.7836 11.2328 17.7836H11.5654C11.8458 17.7836 12.0732 17.5562 12.0732 17.2758C12.0732 16.9954 11.8458 16.768 11.5654 16.768Z" fill="white"/>
<path d="M13.0712 14.9299C12.7908 14.9299 12.5634 15.1573 12.5634 15.4377V15.7702C12.5634 16.0506 12.7908 16.278 13.0712 16.278C13.3517 16.278 13.5791 16.0506 13.5791 15.7702V15.4377C13.5791 15.1572 13.3517 14.9299 13.0712 14.9299Z" fill="white"/>
<path d="M13.0712 18.2737C12.7908 18.2737 12.5634 18.5011 12.5634 18.7815V19.114C12.5634 19.3945 12.7908 19.6219 13.0712 19.6219C13.3517 19.6219 13.5791 19.3945 13.5791 19.114V18.7815C13.5791 18.5011 13.3517 18.2737 13.0712 18.2737Z" fill="white"/>
<path d="M14.0708 17.2758C14.0708 17.5562 14.2982 17.7836 14.5786 17.7836H14.9112C15.1916 17.7836 15.419 17.5562 15.419 17.2758C15.419 16.9954 15.1916 16.768 14.9112 16.768H14.5786C14.2982 16.768 14.0708 16.9954 14.0708 17.2758Z" fill="white"/>
<path d="M6.48051 1.23886C6.38113 1.10388 6.22189 1.0274 6.054 1.03243L0.774682 1.21524C0.507979 1.22448 0.293936 1.43848 0.284745 1.70513L0.101881 6.98348C0.0960923 7.15111 0.173381 7.31072 0.30846 7.4101L9.95578 14.508C10.0446 14.5734 10.1503 14.6068 10.2568 14.6068C10.3316 14.6068 10.4068 14.5903 10.4766 14.5567L12.4447 13.6109C12.5475 13.5618 12.633 13.4761 12.6823 13.3735L13.6297 11.4058C13.7112 11.2364 13.6925 11.0358 13.5811 10.8844L6.48051 1.23886ZM1.28331 2.2138L5.33702 2.07344L4.21831 5.1482L1.14295 6.26671L1.28331 2.2138ZM12.0776 12.2881L9.71162 9.92255C9.51327 9.7242 9.19178 9.72425 8.99348 9.9226C8.79517 10.1209 8.79523 10.4424 8.99353 10.6407L11.3591 13.0059L10.3118 13.5092L1.67427 7.15416L4.4842 6.13219L5.76861 7.41634C5.86774 7.51552 5.99774 7.56508 6.12764 7.56508C6.25764 7.56508 6.38758 7.51547 6.48671 7.41629C6.68501 7.21799 6.68496 6.89644 6.48666 6.69814L5.2023 5.41404L6.22453 2.60441L12.5819 11.2405L12.0776 12.2881Z" fill="white"/>
<path d="M7.38245 9.02996C7.48143 9.12893 7.61092 9.17834 7.74051 9.17834C7.87051 9.17834 8.00056 9.12858 8.09989 9.0292C8.29819 8.8309 8.29753 8.50864 8.09918 8.31034C7.90083 8.11209 7.57938 8.11209 7.38098 8.31034C7.18268 8.50864 7.18268 8.83019 7.38098 9.02854L7.38245 9.02996Z" fill="white"/>
</g>
<defs>
<clipPath id="clip0">
<rect width="26" height="26" fill="white"/>
</clipPath>
</defs>
</svg>
