<svg width="26" height="26" viewBox="0 0 26 26" fill="none" xmlns="http://www.w3.org/2000/svg">
<path d="M24.6752 16.352C23.5576 15.7934 22.5428 15.0617 21.6588 14.1781L21.2932 13.8125L24.2068 10.8989C24.2832 10.8225 24.3258 10.7193 24.3258 10.6117C24.3258 10.5036 24.2832 10.4004 24.2068 10.324C24.0532 10.1709 23.9688 9.96695 23.9688 9.75001C23.9688 9.53308 24.0532 9.32914 24.2068 9.17558C24.2832 9.0992 24.3258 8.99601 24.3258 8.88795C24.3258 8.7803 24.2832 8.6767 24.2068 8.60073L21.4614 5.8553C21.3025 5.69645 21.0458 5.69645 20.8869 5.8553C20.5798 6.16242 20.0452 6.16242 19.7381 5.8553C19.5792 5.69645 19.3225 5.69645 19.1636 5.8553L16.25 8.76933L16.0611 8.58042C15.2433 7.76264 14.1566 7.31251 13 7.31251C12.413 7.31251 11.8446 7.42951 11.3193 7.65092L4.368 0.69917C3.88497 0.216545 3.00137 0.342888 2.35706 0.986795C2.07106 1.27279 1.87444 1.62298 1.80456 1.97195C1.72412 2.37454 1.82041 2.7487 2.06984 2.99733L8.79613 9.72361L3.53722 14.9821C3.24756 15.2718 2.847 15.4375 2.4375 15.4375C1.31747 15.4375 0.40625 16.3487 0.40625 17.4688C0.40625 18.5888 1.31747 19.5 2.4375 19.5H23.9322C24.8483 19.5 25.5938 18.7545 25.5938 17.8385C25.5938 17.2051 25.2419 16.6351 24.6752 16.352ZM23.3809 10.5759L20.7188 13.2381L19.6682 12.1875L23.1562 8.69945L23.3809 8.92411C23.2343 9.17151 23.1562 9.45467 23.1562 9.75001C23.1562 10.0454 23.2343 10.3285 23.3809 10.5759ZM18.4494 10.9688L21.9375 7.4807L22.5818 8.12501L19.0938 11.6131L18.4494 10.9688ZM19.487 6.68161C19.9822 6.97492 20.6432 6.97492 21.138 6.68161L21.3631 6.90626L17.875 10.3943L16.8244 9.34376L19.487 6.68161ZM2.64428 2.42248C2.59147 2.37008 2.57562 2.2612 2.60122 2.1312C2.63981 1.94067 2.76006 1.73267 2.93109 1.56123C3.28169 1.21064 3.67575 1.15661 3.79356 1.27361L10.5755 8.05555C10.3496 8.2087 10.1363 8.38339 9.93891 8.58083L9.37056 9.14917L2.64428 2.42248ZM23.9322 18.6875H2.4375C1.76556 18.6875 1.21875 18.1407 1.21875 17.4688C1.21875 16.7968 1.76556 16.25 2.4375 16.25C3.06069 16.25 3.67088 15.9973 4.11166 15.5565L10.5133 9.15526C11.1776 8.49064 12.0608 8.12501 13 8.12501C13.9392 8.12501 14.8224 8.49064 15.4867 9.15526L21.0844 14.7526C22.0297 15.6983 23.116 16.4808 24.3116 17.0788C24.6017 17.2234 24.7812 17.5147 24.7812 17.8385C24.7812 18.3065 24.4002 18.6875 23.9322 18.6875Z" fill="white"/>
<path d="M9.75 20.3125C9.4705 20.3125 9.19791 20.3588 8.9375 20.4515C8.2615 20.2114 7.47459 20.2942 6.90625 20.6392C6.33831 20.2942 5.55141 20.2114 4.875 20.4515C4.35459 20.2666 3.77041 20.2666 3.25 20.4515C2.98959 20.3588 2.717 20.3125 2.4375 20.3125C1.31747 20.3125 0.40625 21.0413 0.40625 21.9375C0.40625 22.8337 1.31747 23.5625 2.4375 23.5625C2.717 23.5625 2.98959 23.5162 3.25 23.4236C3.77041 23.6084 4.35459 23.6084 4.875 23.4236C5.55141 23.6645 6.33831 23.5812 6.90625 23.2359C7.47459 23.5812 8.2615 23.6645 8.9375 23.4236C9.19791 23.5162 9.4705 23.5625 9.75 23.5625C10.87 23.5625 11.7812 22.8337 11.7812 21.9375C11.7812 21.0413 10.87 20.3125 9.75 20.3125ZM9.75 22.75C9.52413 22.75 9.30516 22.7045 9.1 22.6147C9.048 22.592 8.99234 22.581 8.9375 22.581C8.88266 22.581 8.827 22.592 8.775 22.6147C8.23591 22.8504 7.55666 22.7586 7.17113 22.4279C7.01878 22.2971 6.79413 22.2971 6.64178 22.4279C6.25666 22.7582 5.57741 22.8504 5.03791 22.6147C4.93391 22.5697 4.8165 22.5697 4.7125 22.6147C4.30219 22.7939 3.82322 22.7939 3.41291 22.6147C3.30891 22.5697 3.1915 22.5697 3.0875 22.6147C2.88234 22.7045 2.66337 22.75 2.4375 22.75C1.77694 22.75 1.21875 22.3779 1.21875 21.9375C1.21875 21.4972 1.77694 21.125 2.4375 21.125C2.66337 21.125 2.88234 21.1705 3.0875 21.2603C3.1915 21.3054 3.30891 21.3054 3.41291 21.2603C3.82322 21.0812 4.30219 21.0812 4.7125 21.2603C4.8165 21.3054 4.93391 21.3054 5.03791 21.2603C5.577 21.0243 6.25666 21.1165 6.64178 21.4472C6.79413 21.578 7.01878 21.578 7.17113 21.4472C7.55706 21.1169 8.23631 21.0247 8.775 21.2603C8.879 21.3054 8.99641 21.3054 9.10041 21.2603C9.30516 21.1705 9.52413 21.125 9.75 21.125C10.4106 21.125 10.9688 21.4972 10.9688 21.9375C10.9688 22.3779 10.4106 22.75 9.75 22.75Z" fill="white"/>
<path d="M22.3438 22.3438C22.0642 22.3438 21.7917 22.3901 21.5312 22.4827C20.8552 22.2426 20.0679 22.3251 19.5 22.6704C18.9321 22.3251 18.1456 22.2426 17.4688 22.4827C16.9483 22.2979 16.3642 22.2979 15.8438 22.4827C15.5833 22.3901 15.3108 22.3438 15.0312 22.3438C13.9112 22.3438 13 23.0726 13 23.9688C13 24.865 13.9112 25.5938 15.0312 25.5938C15.3108 25.5938 15.5833 25.5475 15.8438 25.4548C16.3642 25.6397 16.9483 25.6397 17.4688 25.4548C18.1456 25.6953 18.9321 25.6125 19.5 25.2672C20.0679 25.6125 20.8552 25.6953 21.5312 25.4548C21.7917 25.5475 22.0642 25.5938 22.3438 25.5938C23.4638 25.5938 24.375 24.865 24.375 23.9688C24.375 23.0726 23.4638 22.3438 22.3438 22.3438ZM22.3438 24.7813C22.1179 24.7813 21.8989 24.7358 21.6938 24.646C21.6418 24.6232 21.5861 24.6123 21.5312 24.6123C21.4764 24.6123 21.4207 24.6232 21.3687 24.646C20.8292 24.8816 20.1504 24.7898 19.7649 24.4591C19.6125 24.3283 19.3879 24.3283 19.2355 24.4591C18.85 24.7898 18.1708 24.882 17.6317 24.646C17.5277 24.6009 17.4102 24.6009 17.3062 24.646C16.8959 24.8252 16.417 24.8252 16.0067 24.646C15.9027 24.6009 15.7852 24.6009 15.6812 24.646C15.4761 24.7358 15.2571 24.7813 15.0312 24.7813C14.3707 24.7813 13.8125 24.4092 13.8125 23.9688C13.8125 23.5284 14.3707 23.1563 15.0312 23.1563C15.2571 23.1563 15.4761 23.2018 15.6812 23.2916C15.7852 23.3367 15.9027 23.3367 16.0067 23.2916C16.417 23.1124 16.8959 23.1124 17.3062 23.2916C17.4102 23.3367 17.5277 23.3367 17.6317 23.2916C18.1708 23.0555 18.85 23.1482 19.2355 23.4784C19.3879 23.6092 19.6125 23.6092 19.7649 23.4784C20.1504 23.1486 20.8297 23.0559 21.3687 23.2916C21.4727 23.3367 21.5902 23.3367 21.6942 23.2916C21.8989 23.2018 22.1179 23.1563 22.3438 23.1563C23.0043 23.1563 23.5625 23.5284 23.5625 23.9688C23.5625 24.4092 23.0043 24.7813 22.3438 24.7813Z" fill="white"/>
<path d="M12.5938 9.34375H13.4062V10.1562H12.5938V9.34375Z" fill="white"/>
<path d="M14.2188 10.1562H15.0312V10.9688H14.2188V10.1562Z" fill="white"/>
<path d="M10.9688 9.75H11.7812V10.5625H10.9688V9.75Z" fill="white"/>
<path d="M4.875 17.0625H5.6875V17.875H4.875V17.0625Z" fill="white"/>
<path d="M6.5 16.25H7.3125V17.0625H6.5V16.25Z" fill="white"/>
<path d="M8.125 15.4375H8.9375V16.25H8.125V15.4375Z" fill="white"/>
<path d="M19.9062 17.0625H20.7188V17.875H19.9062V17.0625Z" fill="white"/>
<path d="M19.0938 15.4375H19.9062V16.25H19.0938V15.4375Z" fill="white"/>
</svg>
